<svg version="1.1"
     width="680" height="1020"
     font-family="Arial, Helvetica, sans-serif"
     font-weight="bold"
     xmlns="http://www.w3.org/2000/svg">

  <g transform="translate(0, 50)">
    <text x="340" font-size="50" text-anchor="middle" fill="darkseagreen" stroke="rgba(0, 0, 0, 0.6)">Ground Floor</text>

    <g transform="translate(20, 240)">
      <rect x="90" y="190" width="20" height="40" fill="bisque" stroke="rgba(0, 0, 0, 0.3)" stroke-width="2" />
      <rect x="190" y="90" width="40" height="20" fill="bisque" stroke="rgba(0, 0, 0, 0.3)" stroke-width="2" />
      <rect width="200" height="200" fill="bisque" stroke="rgba(0, 0, 0, 0.3)" stroke-width="2" />
      <text y="100" font-size="30" text-anchor="middle" fill="steelblue" stroke="rgba(0, 0, 0, 0.3)" stroke-width="0.7"><tspan x="100">Director's</tspan><tspan x="100" dy="1em">Office</tspan></text>
    </g>

    <g transform="translate(20, 460)">
      <rect width="200" height="200" fill="bisque" stroke="rgba(0, 0, 0, 0.3)" stroke-width="2" />
      <text y="100" font-size="30" text-anchor="middle" fill="steelblue" stroke="rgba(0, 0, 0, 0.3)" stroke-width="0.7"><tspan x="100">Waiting</tspan><tspan x="100" dy="1em">Room</tspan></text>
    </g>

    <g transform="translate(240, 240)">
      <rect x="90" y="-30" width="20" height="40" fill="bisque" stroke="rgba(0, 0, 0, 0.3)" stroke-width="2" />
      <rect x="90" y="190" width="20" height="40" fill="bisque" stroke="rgba(0, 0, 0, 0.3)" stroke-width="2" />
      <rect x="190" y="90" width="40" height="20" fill="bisque" stroke="rgba(0, 0, 0, 0.3)" stroke-width="2" />
      <rect width="200" height="200" fill="bisque" stroke="rgba(0, 0, 0, 0.3)" stroke-width="2" />
      <text y="100" font-size="30" text-anchor="middle" fill="steelblue" stroke="rgba(0, 0, 0, 0.3)" stroke-width="0.7"><tspan x="100">Hallway</tspan><tspan x="100" dy="3em" stroke-width="0.5" font-size="20">(stairs down)</tspan></text>
    </g>

    <g transform="translate(240, 20)">
      <rect width="200" height="200" fill="bisque" stroke="rgba(0, 0, 0, 0.3)" stroke-width="2" />
      <text y="100" font-size="30" text-anchor="middle" fill="steelblue" stroke="rgba(0, 0, 0, 0.3)" stroke-width="0.7"><tspan x="100">Propulsion</tspan><tspan x="100" dy="1em">Lab</tspan></text>
    </g>

    <g transform="translate(240, 460)">
      <rect width="200" height="200" fill="bisque" stroke="rgba(0, 0, 0, 0.3)" stroke-width="2" />
      <text y="100" font-size="30" text-anchor="middle" fill="steelblue" stroke="rgba(0, 0, 0, 0.3)" stroke-width="0.7"><tspan x="100">Personnel</tspan><tspan x="100" dy="1em">Department</tspan></text>
    </g>

    <g transform="translate(460, 240)">
      <rect width="200" height="200" fill="bisque" stroke="rgba(0, 0, 0, 0.3)" stroke-width="2" />
      <text y="100" font-size="30" text-anchor="middle" fill="steelblue" stroke="rgba(0, 0, 0, 0.3)" stroke-width="0.7"><tspan x="100">Engineering</tspan><tspan x="100" dy="1em">Department</tspan></text>
    </g>
  </g>

  <g transform="translate(0, 780)">
    <text x="340" font-size="50" text-anchor="middle" fill="darkseagreen" stroke="rgba(0, 0, 0, 0.6)">Basement</text>

    <g transform="translate(20, 20)">
      <rect x="190" y="90" width="40" height="20" fill="bisque" stroke="rgba(0, 0, 0, 0.3)" stroke-width="2" />
      <rect width="200" height="200" fill="bisque" stroke="rgba(0, 0, 0, 0.3)" stroke-width="2" />
      <text y="100" font-size="30" text-anchor="middle" fill="steelblue" stroke="rgba(0, 0, 0, 0.3)" stroke-width="0.7"><tspan x="100">Chemistry</tspan><tspan x="100" dy="1em">Lab</tspan></text>
    </g>

    <g transform="translate(240, 20)">
      <rect x="190" y="90" width="40" height="20" fill="bisque" stroke="rgba(0, 0, 0, 0.3)" stroke-width="2" />
      <rect width="200" height="200" fill="bisque" stroke="rgba(0, 0, 0, 0.3)" stroke-width="2" />
      <text y="100" font-size="30" text-anchor="middle" fill="steelblue" stroke="rgba(0, 0, 0, 0.3)" stroke-width="0.7"><tspan x="100">Hallway</tspan><tspan x="100" dy="3em" stroke-width="0.5" font-size="20">(stairs up)</tspan></text>
    </g>

    <g transform="translate(460, 20)">
      <rect width="200" height="200" fill="bisque" stroke="rgba(0, 0, 0, 0.3)" stroke-width="2" />
      <text y="100" font-size="30" text-anchor="middle" fill="bisque" stroke="bisque" stroke-width="0.7">
        <tspan x="100">Sound</tspan>
        <tspan x="100" dy="1em">Stage</tspan>
        <tspan x="100" dy="2.5em" fill="steelblue" stroke="rgba(0, 0, 0, 0.3)" stroke-width="0.5" font-size="20">(spoiler!)</tspan>
      </text>
    </g>
  </g>

  <g transform="translate(30, 60) scale(0.3, 0.3)" fill="none" stroke="black" stroke-width="1">
    <g transform="translate(-56.88765,-38.38015)">
      <g fill="white">
        <path d="M 330.74501,304.6637 L 363.57811,337.4968 L 363.56214,337.4968 L 120.71013,337.4968 L 330.74501,304.6637" />
        <path d="M 397.41118,371.32995 L 364.57808,338.49685 L 364.59405,338.49685 L 607.44606,338.49685 L 397.41118,371.32995" />
        <path d="M 330.74499,371.32988 L 363.57809,338.49678 L 363.57809,338.51275 L 363.57809,581.36476 L 330.74499,371.32988" />
        <path d="M 397.41115,304.66372 L 364.57805,337.49682 L 364.57805,337.48085 L 364.57805,94.62884 L 397.41115,304.66372" />
      </g>
      <g fill="black">
        <path d="M 330.74501,371.3299 L 363.57811,338.4968 L 363.56214,338.4968 L 120.71013,338.4968 L 330.74501,371.3299" />
        <path d="M 397.41118,304.66375 L 364.57808,337.49685 L 364.59405,337.49685 L 607.44606,337.49685 L 397.41118,304.66375" />
        <path d="M 397.41119,371.32988 L 364.57809,338.49678 L 364.57809,338.51275 L 364.57809,581.36476 L 397.41119,371.32988" />
        <path d="M 330.74495,304.66372 L 363.57805,337.49682 L 363.57805,337.48085 L 363.57805,94.62884 L 330.74495,304.66372" />
      </g>
    </g>
    <g fill="black">
      <path d="M 294.12404,12.387486 L 302.52247,12.387486 L 313.12794,32.387486 L 313.12794,12.387486 L 320.25685,12.387486 L 320.25685,41.547642 L 311.85841,41.547642 L 301.25294,21.547642 L 301.25294,41.547642 L 294.12404,41.547642 L 294.12404,12.387486" />
      <path d="M 572.23012,285.03658 L 592.52309,285.03658 L 592.52309,290.72017 L 579.74965,290.72017 L 579.74965,296.14985 L 591.76137,296.14985 L 591.76137,301.83345 L 579.74965,301.83345 L 579.74965,308.51314 L 592.95277,308.51314 L 592.95277,314.19673 L 572.23012,314.19673 L 572.23012,285.03658" />
      <path d="M 9,285.03658 L 16.207031,285.03658 L 21.246094,306.22798 L 26.246094,285.03658 L 33.492187,285.03658 L 38.492187,306.22798 L 43.531253,285.03658 L 50.679687,285.03658 L 43.804683,314.19673 L 35.132812,314.19673 L 29.839844,292.02875 L 24.605469,314.19673 L 15.933594,314.19673 L 9,285.03658" />
      <path d="M 316.7803,560.1914 L 316.7803,566.36328 C 315.1787,565.64716 313.6162,565.10679 312.09279,564.74218 C 310.56933,564.37763 309.13053,564.19533 307.77639,564.19531 C 305.97949,564.19533 304.65137,564.44273 303.79201,564.9375 C 302.93263,565.43231 302.50293,566.20054 302.50295,567.24218 C 302.50293,568.02346 302.78941,568.63543 303.36231,569.07812 C 303.94824,569.50783 305.00293,569.87892 306.52639,570.1914 L 309.7295,570.83593 C 312.97168,571.48699 315.27637,572.47658 316.64357,573.80468 C 318.01074,575.13282 318.69433,577.02084 318.69435,579.46875 C 318.69433,582.6849 317.73731,585.08073 315.82325,586.65625 C 313.9222,588.21875 311.01205,589 307.09279,589 C 305.24381,589 303.38835,588.82422 301.52639,588.47265 C 299.6644,588.12109 297.80242,587.60026 295.94045,586.91015 L 295.94045,580.5625 C 297.80242,581.55209 299.59929,582.30078 301.33107,582.80859 C 303.07586,583.30339 304.75554,583.55078 306.37013,583.55078 C 308.01075,583.55078 309.26725,583.27735 310.13966,582.73047 C 311.01205,582.1836 311.44823,581.40235 311.44825,580.38672 C 311.44823,579.47527 311.14876,578.77214 310.54981,578.27734 C 309.96387,577.78256 308.7855,577.33985 307.01466,576.94922 L 304.1045,576.30468 C 301.18784,575.6797 299.05241,574.6836 297.69825,573.3164 C 296.35711,571.94923 295.68653,570.10679 295.68653,567.78906 C 295.68653,564.88544 296.62403,562.65237 298.49904,561.08984 C 300.37404,559.52737 303.06933,558.74612 306.58497,558.74609 C 308.18652,558.74612 309.83365,558.86982 311.52639,559.11718 C 313.21907,559.35159 314.97039,559.70966 316.7803,560.1914" />
    </g>
  </g>
</svg>
